# Blender v2.80 (sub 75) OBJ File: ''
# www.blender.org
mtllib multimaterial.mtl
o Cube.001
v 1.000000 0.348247 -1.000000
v 1.000000 0.348247 1.000000
v -1.000000 0.348247 1.000000
v -1.000000 0.348247 -1.000000
v -0.000000 2.348247 0.000001
vn 0.0000 -1.0000 -0.0000
vn 0.8944 0.4472 0.0000
vn 0.0000 0.4472 0.8944
vn -0.8944 0.4472 0.0000
vn 0.0000 0.4472 -0.8944
usemtl Material.002
s off
f 1//1 2//1 3//1 4//1
f 1//2 5//2 2//2
f 2//3 5//3 3//3
f 3//4 5//4 4//4
f 5//5 1//5 4//5
o Plane
v -10.519122 0.000000 10.519122
v 10.519122 0.000000 10.519122
v -10.519122 0.000000 -10.519122
v 10.519122 0.000000 -10.519122
vt 0.000000 0.000000
vt 1.000000 0.000000
vt 1.000000 1.000000
vt 0.000000 1.000000
vn 0.0000 1.0000 0.0000
usemtl None
s off
f 6/1/6 7/2/6 9/3/6 8/4/6
